AB28_05Apr_ss_11ms_01
version=1
nRows=27
nColumns=19
inDegrees=yes
endheader
time	ground_force1_vx	ground_force1_vy	ground_force1_vz	ground_force1_px	ground_force1_py	ground_force1_pz	ground_torque1_x	ground_torque1_y	ground_torque1_z	ground_force2_vx	ground_force2_vy	ground_force2_vz	ground_force2_px	ground_force2_py	ground_force2_pz	ground_torque2_x	ground_torque2_y	ground_torque2_z
15.075000	31.098633	613.668640	-11.061705	0.417502	0.000000	-0.762758	0.000036	-2.816061	0.000023	-0.000000	-0.000000	0.000000	0.727500	0.000000	-0.812500	0.000000	0.000000	-0.000000	
15.076000	30.640869	610.944031	-10.909117	0.416463	0.000000	-0.764569	0.000016	-3.574005	0.000012	-0.000000	-0.000000	0.000000	0.727500	0.000000	-0.812500	0.000000	0.000000	-0.000000	
15.077000	30.640869	613.063171	-14.876402	0.415023	0.000000	-0.765889	0.000027	-2.716049	0.000020	-0.000000	-0.000000	0.000000	0.727500	0.000000	-0.812500	0.000000	0.000000	-0.000000	
15.078000	31.861572	612.154968	-15.791929	0.416122	0.000000	-0.762263	0.000037	-1.551229	0.000020	-0.000000	-0.000000	0.000000	0.727500	0.000000	-0.812500	0.000000	0.000000	-0.000000	
15.079000	33.540039	615.182312	-16.249693	0.415274	0.000000	-0.762460	-0.000000	-0.341230	0.000020	-0.000000	-0.000000	0.000000	0.727500	0.000000	-0.812500	0.000000	0.000000	-0.000000	
15.080000	31.403809	617.604187	-15.791929	0.414961	0.000000	-0.762224	0.000010	2.198584	0.000010	-0.000000	-0.000000	0.000000	0.727500	0.000000	-0.812500	0.000000	0.000000	-0.000000	
15.081000	35.218506	618.209656	-15.791929	0.418258	0.000000	-0.764621	0.000018	2.432404	0.000006	-0.000000	-0.000000	0.000000	0.727500	0.000000	-0.812500	0.000000	0.000000	-0.000000	
15.082000	36.286621	620.934265	-15.486753	0.420110	0.000000	-0.764004	0.000003	-0.536087	0.000003	-0.000000	-0.000000	0.000000	0.727500	0.000000	-0.812500	0.000000	0.000000	-0.000000	
15.083000	31.861572	625.172546	-15.181578	0.414072	0.000000	-0.763876	0.000044	-0.056663	0.000012	-0.000000	-0.000000	0.000000	0.727500	0.000000	-0.812500	0.000000	0.000000	-0.000000	
15.084000	30.335693	625.475281	-15.791929	0.411510	0.000000	-0.763895	0.000023	1.686838	0.000027	-0.000000	-0.000000	0.000000	0.727500	0.000000	-0.812500	0.000000	0.000000	-0.000000	
15.085000	29.877930	620.934265	-16.097105	0.412855	0.000000	-0.758136	0.000014	0.402679	0.000006	-0.000000	-0.000000	0.000000	0.727500	0.000000	-0.812500	0.000000	0.000000	-0.000000	
15.086000	32.166748	617.604187	-17.317808	0.416516	0.000000	-0.754357	0.000033	1.065351	0.000016	-0.000000	-0.000000	0.000000	0.727500	0.000000	-0.812500	0.000000	0.000000	-0.000000	
15.087000	34.150391	618.209656	-18.538511	0.419572	0.000000	-0.754797	0.000037	1.217688	0.000021	-0.000000	-0.000000	0.000000	0.727500	0.000000	-0.812500	0.000000	0.000000	-0.000000	
15.088000	34.455566	620.328796	-18.538511	0.420758	0.000000	-0.751827	0.000030	-0.231113	0.000015	-0.000000	-0.000000	0.000000	0.727500	0.000000	-0.812500	0.000000	0.000000	-0.000000	
15.089000	34.150391	625.475281	-17.012632	0.417768	0.000000	-0.752244	0.000029	-1.685340	0.000006	-0.000000	-0.000000	0.000000	0.727500	0.000000	-0.812500	0.000000	0.000000	-0.000000	
15.090000	30.335693	633.649109	-17.165220	0.409932	0.000000	-0.759408	0.000012	0.285776	0.000004	-0.000000	-0.000000	0.000000	0.727500	0.000000	-0.812500	0.000000	0.000000	-0.000000	
15.091000	32.777100	642.428406	-17.622984	0.406169	0.000000	-0.763021	0.000034	2.707143	0.000010	-0.000000	-0.000000	0.000000	0.727500	0.000000	-0.812500	0.000000	0.000000	-0.000000	
15.092000	35.523682	637.887390	-17.317808	0.411608	0.000000	-0.758932	0.000036	-0.615862	0.000013	-0.000000	-0.000000	0.000000	0.727500	0.000000	-0.812500	0.000000	0.000000	-0.000000	
15.093000	35.371094	632.135437	-17.928160	0.417573	0.000000	-0.749698	0.000015	-4.942218	0.000016	-0.000000	-0.000000	0.000000	0.727500	0.000000	-0.812500	0.000000	0.000000	-0.000000	
15.094000	35.218506	623.356140	-20.674742	0.421913	0.000000	-0.747007	0.000028	-5.937808	0.000007	-0.000000	-0.000000	0.000000	0.727500	0.000000	-0.812500	0.000000	0.000000	-0.000000	
15.095000	32.777100	621.842468	-24.336851	0.420447	0.000000	-0.745309	0.000004	-6.089070	0.000022	-0.000000	-0.000000	0.000000	0.727500	0.000000	-0.812500	0.000000	0.000000	-0.000000	
15.096000	32.166748	627.897156	-25.557554	0.414275	0.000000	-0.748568	0.000025	-4.406923	0.000025	-0.000000	-0.000000	0.000000	0.727500	0.000000	-0.812500	0.000000	0.000000	-0.000000	
15.097000	30.488281	638.190125	-23.116148	0.407825	0.000000	-0.753624	0.000033	-0.436805	0.000011	-0.000000	-0.000000	0.000000	0.727500	0.000000	-0.812500	0.000000	0.000000	-0.000000	
15.098000	31.098633	649.694031	-21.285093	0.405833	0.000000	-0.755610	-0.000004	1.792349	0.000011	-0.000000	-0.000000	0.000000	0.727500	0.000000	-0.812500	0.000000	0.000000	-0.000000	
15.099000	36.744385	649.391296	-19.454039	0.413300	0.000000	-0.751473	0.000019	1.841283	0.000018	-0.000000	-0.000000	0.000000	0.727500	0.000000	-0.812500	0.000000	0.000000	-0.000000	
15.100000	40.253906	643.639343	-22.048033	0.419977	0.000000	-0.745356	0.000034	3.232968	0.000011	-0.000000	-0.000000	0.000000	0.727500	0.000000	-0.812500	0.000000	0.000000	-0.000000	
15.101000	40.253906	636.979187	-24.794615	0.421702	0.000000	-0.745904	0.000041	5.261687	0.000010	-0.000000	-0.000000	0.000000	0.727500	0.000000	-0.812500	0.000000	0.000000	-0.000000	
